<svg xmlns="http://www.w3.org/2000/svg" viewBox="0 0 900 760" role="img" aria-label="Colorful paint splash">
  <defs>
    <radialGradient id="yellow" cx="40%" cy="32%" r="70%">
      <stop offset="0" stop-color="#fff36a"/>
      <stop offset="0.45" stop-color="#fbbf24"/>
      <stop offset="1" stop-color="#f97316"/>
    </radialGradient>
    <radialGradient id="orange" cx="48%" cy="36%" r="72%">
      <stop offset="0" stop-color="#ffd166"/>
      <stop offset="0.5" stop-color="#fb6a21"/>
      <stop offset="1" stop-color="#d92323"/>
    </radialGradient>
    <radialGradient id="magenta" cx="52%" cy="42%" r="70%">
      <stop offset="0" stop-color="#ff77d8"/>
      <stop offset="0.48" stop-color="#e11d8f"/>
      <stop offset="1" stop-color="#6d28d9"/>
    </radialGradient>
    <radialGradient id="blue" cx="48%" cy="45%" r="72%">
      <stop offset="0" stop-color="#4be7ff"/>
      <stop offset="0.48" stop-color="#0891b2"/>
      <stop offset="1" stop-color="#1d4ed8"/>
    </radialGradient>
    <radialGradient id="green" cx="46%" cy="42%" r="72%">
      <stop offset="0" stop-color="#b8ff4d"/>
      <stop offset="0.45" stop-color="#22c55e"/>
      <stop offset="1" stop-color="#047857"/>
    </radialGradient>
    <filter id="paintShadow" x="-20%" y="-20%" width="140%" height="140%">
      <feDropShadow dx="0" dy="22" stdDeviation="18" flood-color="#071a35" flood-opacity="0.3"/>
    </filter>
  </defs>

  <g filter="url(#paintShadow)">
    <path fill="url(#orange)" d="M420 315C365 214 325 130 350 82c37 35 64 114 108 194 31-78 68-151 111-195 15 84-18 153-47 232 86-51 157-85 224-82-40 65-111 99-190 132 85 16 160 48 210 92-76 28-157 3-238-16 58 69 96 139 106 210-77-21-129-81-182-153-42 76-100 131-174 157 3-77 43-146 87-212-89 13-167 0-233-43 58-50 137-68 221-79-73-44-135-91-169-154 72-6 148 42 236 150Z"/>
    <path fill="url(#yellow)" d="M401 300C382 211 387 130 420 45c43 78 45 159 49 242 49-73 100-130 168-163-7 78-55 138-110 199 82-21 159-20 230 10-58 45-132 54-213 58 59 55 101 113 126 184-74-7-135-49-196-103-2 77-21 144-65 204-39-63-42-132-38-211-67 48-136 73-211 72 30-69 86-116 154-158-82-12-153-38-209-86 73-30 151-20 296 7Z" opacity="0.92"/>
    <path fill="url(#magenta)" d="M458 339C505 249 552 183 624 148c3 79-32 144-77 213 82-27 154-38 226-14-49 56-117 77-195 93 69 38 122 87 160 151-70 15-137-12-206-52 24 75 29 147 9 219-63-43-95-105-124-178-37 75-82 132-150 169-14-74 12-142 47-215-79 20-148 18-216-13 50-57 118-79 194-101-70-36-124-82-165-145 74-17 144 11 331 64Z" opacity="0.88"/>
    <path fill="url(#blue)" d="M357 371C262 344 174 325 95 341c59 52 135 71 219 88-76 36-138 80-187 141 78 10 148-17 223-54-33 77-46 149-33 220 61-50 90-117 119-197 53 68 111 117 184 146 5-76-29-142-75-213 78 5 149-12 214-55-61-42-133-51-213-54 59-52 105-109 134-179-74 3-138 41-203 95-20-78-53-143-109-193-31 72-25 147-11 285Z" opacity="0.9"/>
    <path fill="url(#green)" d="M330 334C232 294 153 257 88 194c84-8 157 28 236 73-36-75-54-143-45-218 65 50 96 114 124 191 41-70 91-121 158-158 10 76-17 140-56 207 78-15 149-10 216 23-54 52-124 67-204 77 66 44 115 96 149 164-72 11-139-21-209-65 14 77 8 145-22 210-55-52-77-119-96-197-58 59-121 98-196 113 15-73 58-128 121-181-79-23-144-57-195-116 79-20 150 0 261 17Z" opacity="0.82"/>
    <path fill="#071a35" d="M386 386c-10-48 21-92 74-101 64-10 119 34 121 89 2 62-51 112-119 108-39-2-69-37-76-96Z" opacity="0.48"/>
  </g>

  <g stroke-linecap="round" stroke-width="16" fill="none" opacity="0.96">
    <path d="M381 278C310 160 250 72 197 38" stroke="#f97316"/>
    <path d="M463 268C471 163 480 72 506 15" stroke="#e11d48"/>
    <path d="M528 291C616 206 692 145 766 112" stroke="#fbbf24"/>
    <path d="M582 384C705 376 806 388 875 430" stroke="#0ea5e9"/>
    <path d="M467 503C496 620 533 694 596 735" stroke="#7c3aed"/>
    <path d="M340 484C238 568 158 622 82 643" stroke="#06b6d4"/>
    <path d="M309 375C197 343 102 320 28 331" stroke="#22c55e"/>
    <path d="M354 291C276 214 214 159 146 138" stroke="#bef264"/>
    <path d="M535 330C646 284 744 245 835 256" stroke="#ec4899"/>
    <path d="M574 462C670 524 744 585 776 672" stroke="#f97316"/>
  </g>

  <g opacity="0.98">
    <circle cx="197" cy="38" r="15" fill="#fb923c"/>
    <circle cx="506" cy="15" r="18" fill="#ef4444"/>
    <circle cx="766" cy="112" r="18" fill="#facc15"/>
    <circle cx="875" cy="430" r="13" fill="#38bdf8"/>
    <circle cx="596" cy="735" r="14" fill="#8b5cf6"/>
    <circle cx="82" cy="643" r="16" fill="#22d3ee"/>
    <circle cx="28" cy="331" r="17" fill="#22c55e"/>
    <circle cx="146" cy="138" r="14" fill="#d9f99d"/>
    <circle cx="835" cy="256" r="15" fill="#e879f9"/>
    <circle cx="776" cy="672" r="13" fill="#fb7185"/>
    <circle cx="312" cy="88" r="7" fill="#fde047"/>
    <circle cx="573" cy="83" r="9" fill="#fb7185"/>
    <circle cx="690" cy="190" r="8" fill="#f59e0b"/>
    <circle cx="796" cy="352" r="7" fill="#60a5fa"/>
    <circle cx="703" cy="555" r="10" fill="#f9a8d4"/>
    <circle cx="236" cy="557" r="8" fill="#67e8f9"/>
    <circle cx="156" cy="420" r="9" fill="#a3e635"/>
    <circle cx="246" cy="210" r="8" fill="#fb923c"/>
    <circle cx="646" cy="325" r="7" fill="#fef08a"/>
    <circle cx="430" cy="674" r="8" fill="#c084fc"/>
  </g>
</svg>
